<svg width="213" height="72" viewBox="0 0 213 72" fill="none" xmlns="http://www.w3.org/2000/svg">
<g clip-path="url(#clip0_4_158)">
<path fill-rule="evenodd" clip-rule="evenodd" d="M71.598 35.799C71.598 42.8791 69.4985 49.8002 65.5652 55.6872C61.6318 61.5742 56.0411 66.1626 49.5 68.8724C42.959 71.5821 35.7613 72.2914 28.8172 70.9106C21.873 69.5297 15.4942 66.1208 10.4874 61.1148C5.48059 56.1088 2.0706 49.7306 0.688616 42.7867C-0.693374 35.8428 0.0147082 28.645 2.72333 22.1035C5.43195 15.562 10.0194 9.9705 15.9058 6.03614C21.7921 2.10177 28.7129 0.00118677 35.793 1.25712e-07C40.4946 -0.000393856 45.1502 0.925273 49.494 2.72413C53.8379 4.52298 57.7849 7.1598 61.1097 10.484C64.4345 13.8083 67.072 17.7548 68.8716 22.0984C70.6711 26.4419 71.5976 31.0974 71.598 35.799Z" fill="#D22730"/>
<path d="M20.3564 21.3765H25.6064V50.2215H20.3564V21.3765Z" fill="white"/>
<path d="M53.8635 21.3765V25.914H44.997V50.2215H39.711V25.914H30.8445V21.3765H53.8635Z" fill="white"/>
<path d="M113.224 50.9476V57.9045H85.2704V13.6741H93.3119V50.9476H113.224Z" fill="white"/>
<path d="M115.848 41.3731C115.795 38.7398 116.239 36.1201 117.156 33.6511C117.929 31.5937 119.112 29.7151 120.634 28.1296C122.043 26.6872 123.739 25.5568 125.613 24.8116C127.439 24.0761 129.389 23.6968 131.358 23.6941C133.353 23.5828 135.349 23.9077 137.206 24.6463C139.063 25.3848 140.737 26.5193 142.111 27.9706C144.685 30.8226 145.972 35.0776 145.972 40.7356C145.972 41.1616 145.962 41.6401 145.941 42.1711C145.92 42.7021 145.888 43.1806 145.845 43.6066H123.826C123.86 44.7809 124.129 45.9366 124.617 47.0055C125.104 48.0744 125.801 49.0348 126.666 49.8301C128.752 51.43 131.351 52.213 133.974 52.0321C135.7 52.0473 137.422 51.8763 139.111 51.5221C140.365 51.2725 141.594 50.9095 142.782 50.4376L143.803 56.7556C143.236 57.0238 142.65 57.248 142.048 57.4261C141.21 57.6835 140.359 57.8963 139.498 58.0636C138.541 58.2546 137.509 58.4141 136.402 58.5421C135.279 58.6706 134.15 58.7347 133.02 58.7341C130.407 58.7908 127.807 58.3468 125.361 57.4261C123.318 56.641 121.483 55.3958 119.998 53.7871C118.575 52.2023 117.509 50.3307 116.871 48.2986C116.169 46.058 115.824 43.7209 115.848 41.3731ZM138.25 37.9231C138.254 36.8957 138.103 35.8736 137.8 34.8916C137.529 33.9848 137.085 33.1392 136.492 32.4016C135.921 31.7023 135.205 31.1361 134.392 30.7426C133.461 30.3192 132.446 30.114 131.424 30.1426C130.343 30.1184 129.272 30.348 128.296 30.8131C127.43 31.2386 126.659 31.8357 126.03 32.5681C125.406 33.305 124.919 34.1485 124.594 35.0581C124.255 35.9869 124.02 36.9502 123.892 37.9306L138.25 37.9231Z" fill="white"/>
<path d="M163.372 23.694C165.562 23.637 167.744 23.9608 169.822 24.651C171.414 25.1901 172.849 26.1104 174.003 27.3316C175.071 28.5269 175.837 29.9603 176.238 31.5121C176.701 33.2742 176.926 35.0902 176.908 36.9121V57.1441C175.716 57.3991 173.916 57.7076 171.508 58.0696C168.813 58.4511 166.093 58.6326 163.371 58.6126C161.526 58.6293 159.684 58.4365 157.882 58.038C156.357 57.7145 154.913 57.0848 153.637 56.1871C152.46 55.3273 151.517 54.186 150.894 52.8676C150.188 51.2832 149.849 49.5597 149.904 47.8261C149.85 46.1395 150.235 44.4679 151.021 42.9751C151.754 41.6692 152.794 40.5625 154.053 39.7516C155.41 38.8892 156.913 38.2831 158.488 37.9635C160.219 37.5969 161.984 37.4149 163.753 37.4205C164.649 37.4234 165.544 37.4765 166.434 37.5796C167.444 37.6997 168.446 37.8811 169.434 38.1226V36.8461C169.437 35.9859 169.33 35.1288 169.114 34.296C168.911 33.5072 168.528 32.7758 167.997 32.1586C167.425 31.5151 166.704 31.0222 165.897 30.7231C164.842 30.3533 163.728 30.1804 162.61 30.2131C160.964 30.2016 159.321 30.3296 157.696 30.5956C156.46 30.7896 155.243 31.0907 154.059 31.4956L153.102 25.2406C154.501 24.7975 155.93 24.4561 157.378 24.2191C159.357 23.8647 161.363 23.689 163.372 23.694ZM164.01 52.4791C165.826 52.5232 167.643 52.3951 169.435 52.0965V43.5466C168.827 43.3805 168.209 43.2527 167.584 43.1641C166.697 43.0306 165.801 42.9664 164.904 42.9721C164.039 42.9733 163.175 43.0375 162.319 43.1641C161.501 43.2759 160.705 43.5126 159.958 43.866C159.278 44.1878 158.695 44.6828 158.266 45.3015C157.819 45.9939 157.596 46.8073 157.627 47.6311C157.547 48.3606 157.665 49.0983 157.968 49.7666C158.271 50.435 158.749 51.0093 159.351 51.4291C160.779 52.1975 162.39 52.5606 164.01 52.4791Z" fill="white"/>
<path d="M183.459 25.6067C185.37 25.0924 187.309 24.6877 189.267 24.3946C191.885 23.9941 194.532 23.802 197.181 23.8201C199.508 23.7527 201.826 24.1321 204.01 24.9376C205.711 25.5895 207.216 26.6663 208.383 28.0651C209.507 29.4869 210.293 31.1457 210.681 32.9161C211.144 34.9573 211.369 37.0452 211.351 39.1381V57.9016H203.626V40.3516C203.647 38.8232 203.529 37.296 203.275 35.7886C203.104 34.7002 202.713 33.658 202.126 32.7257C201.597 31.9416 200.839 31.3397 199.956 31.0021C198.883 30.6137 197.746 30.4295 196.605 30.4591C195.581 30.462 194.558 30.5261 193.542 30.6511C192.478 30.7781 191.691 30.8846 191.181 30.9706V57.9046H183.459V25.6067Z" fill="white"/>
</g>
<defs>
<clipPath id="clip0_4_158">
<rect width="213" height="72" fill="white"/>
</clipPath>
</defs>
</svg>
